:SAMPLES-PER-SECOND 30
:FULLY-SPECIFIED
:DEGREES
673
root  -55.8292 38.9627 0.361251 65.0627 82.7776 67.0862
RightUpLeg  11.1137 1.3651 -7.10057
RightLeg  36.1517 18.1709 13.5406
RightFoot  -10.0289 -0.165012 6.52076
RightToes  -2.9104e-010 0 -3.6325e-017
Spine  6.97163 1.25082 -1.77765
Spine1  6.69674 2.40148 -6.13499
HEad  -29.2436 7.97052 -12.1378
LeftShoulder1  -0.517571 4.83323 -32.7849
LeftArm  -11.1265 5.57641 -39.772
LeftForeArm  28.0024 0.411759 -4.26448
LeftHand  -0.089499 9.9757 -0.918185
RightShoulder  -1.08573 -6.47403 30.0187
RightArm  6.63198 -2.9723 43.8958
RightForeArm  7.20428 18.6908 3.96229
RightHand  -0.334521 5.28428 -3.94804
LeftUpLeg  -17.6665 3.549 -10.5262
LeftLeg  18.8573 3.86565 1.56211
LeftFoot  0.14234 -0.657267 6.51264
LeftToes  -3.37426e-010 -1.91496e-010 5.23909e-011
674
root  -54.7523 39.0072 0.219871 52.4879 81.0511 54.0936
RightUpLeg  4.39752 3.49391 -9.07893
RightLeg  47.4256 17.1028 18.7029
RightFoot  -1.12588 -1.26484 13.7547
RightToes  -2.9104e-010 0 -3.6325e-017
Spine  7.18783 1.53966 -3.6489
Spine1  6.28646 2.34885 -6.225
HEad  -30.356 9.03163 -12.9801
LeftShoulder1  -0.452383 4.67887 -32.3684
LeftArm  -10.0986 12.8975 -37.113
LeftForeArm  31.4285 -1.81848 -4.8729
LeftHand  -0.126971 9.47804 -2.0211
RightShoulder  -1.03301 -6.35639 29.6735
RightArm  7.05258 -1.56614 43.6765
RightForeArm  5.72822 23.1242 4.64741
RightHand  -0.318341 6.10599 -3.5451
LeftUpLeg  -16.7156 4.37298 -10.9546
LeftLeg  19.732 5.59287 1.82687
LeftFoot  -2.27486 -0.500581 6.46134
LeftToes  -3.37426e-010 -1.91496e-010 5.23909e-011
675
root  -53.6856 39.0022 0.0870466 46.298 79.1632 48.3011
RightUpLeg  -1.50061 5.49781 -10.986
RightLeg  56.4129 14.5354 21.7651
RightFoot  7.26177 -2.82884 17.695
RightToes  -2.9104e-010 0 -3.6325e-017
Spine  8.01997 1.62403 -5.87747
Spine1  6.10156 1.93127 -5.82374
HEad  -31.2351 10.0796 -13.9651
LeftShoulder1  -0.486671 4.77059 -32.2743
LeftArm  -8.58576 19.4591 -35.0265
LeftForeArm  32.5158 -3.95873 -5.6384
LeftHand  -0.109304 9.4326 -1.59073
RightShoulder  -1.07989 -6.52101 29.259
RightArm  6.72673 -0.455497 43.764
RightForeArm  8.15497 29.1323 5.88233
RightHand  -0.332735 5.61519 -3.82852
LeftUpLeg  -14.8692 4.95919 -11.518
LeftLeg  20.5401 7.14909 1.87536
LeftFoot  -4.83465 -0.308516 5.93892
LeftToes  -3.37426e-010 -1.91496e-010 5.23909e-011
676
root  -52.5812 39.0701 -0.0309183 39.3938 77.8871 41.819
RightUpLeg  -6.88267 7.06999 -11.6003
RightLeg  62.3158 10.2668 19.8668
RightFoot  6.44739 -2.51581 16.1785
RightToes  -2.9104e-010 0 -3.6325e-017
Spine  8.71166 1.93043 -7.07487
Spine1  5.84833 1.81682 -5.04067
HEad  -30.9149 10.8715 -14.6245
LeftShoulder1  -0.434754 4.63823 -32.1885
LeftArm  -8.58702 24.6118 -34.2698
LeftForeArm  31.0815 -4.65777 -5.36713
LeftHand  -0.127553 8.96027 -2.41159
RightShoulder  -1.13355 -6.66292 29.3648
RightArm  4.98805 -0.504047 43.3683
RightForeArm  12.3291 35.6522 7.33256
RightHand  -0.294404 5.94755 -3.34272
LeftUpLeg  -12.5597 4.67652 -11.3054
LeftLeg  20.6889 9.30063 2.11844
LeftFoot  -6.95659 -0.173626 5.63024
LeftToes  -3.37426e-010 -1.91496e-010 5.23909e-011
677
root  -51.4361 39.2457 -0.172146 33.4055 77.7501 36.0783
RightUpLeg  -11.7622 7.25396 -11.3088
RightLeg  64.8356 7.00252 15.3901
RightFoot  3.97619 -1.65574 12.5179
RightToes  -2.9104e-010 0 -3.6325e-017
Spine  9.0302 1.67903 -6.48583
Spine1  5.49769 1.53592 -4.82783
HEad  -30.1227 10.9597 -14.5575
LeftShoulder1  -0.454787 4.70197 -31.8145
LeftArm  -8.9363 28.114 -34.3451
LeftForeArm  28.0039 -4.72195 -4.97066
LeftHand  -0.134467 8.97519 -2.62931
RightShoulder  -1.12609 -6.62952 29.5047
RightArm  4.1501 -1.29299 43.2232
RightForeArm  14.6445 41.5922 8.97879
RightHand  -0.367682 5.76933 -4.14877
LeftUpLeg  -9.76373 4.31655 -10.5639
LeftLeg  19.6765 10.6731 2.09583
LeftFoot  -8.39745 -0.092035 5.57174
LeftToes  -3.37426e-010 -1.91496e-010 5.23909e-011
678
root  -50.2792 39.3769 -0.276328 29.371 78.0672 32.5955
RightUpLeg  -15.5151 7.23066 -10.6263
RightLeg  64.524 4.82859 10.4344
RightFoot  2.94429 -1.30353 10.5416
RightToes  -2.9104e-010 0 -3.6325e-017
Spine  9.36988 1.42345 -6.4918
Spine1  5.52956 1.05793 -3.8275
HEad  -29.0463 11.1217 -13.7674
LeftShoulder1  -0.445392 4.68282 -31.6368
LeftArm  -10.0128 29.92 -35.1587
LeftForeArm  27.6163 -4.82458 -4.36305
LeftHand  -0.162032 8.96774 -3.4123
RightShoulder  -1.16909 -6.73151 29.7094
RightArm  4.18677 -1.76511 43.1975
RightForeArm  16.3188 45.7185 10.3394
RightHand  -0.356886 6.61071 -3.78931
LeftUpLeg  -6.53844 4.28791 -9.9591
LeftLeg  18.4578 10.9415 1.72273
LeftFoot  -9.73 -0.0237836 5.82178
LeftToes  -3.37426e-010 -1.91496e-010 5.23909e-011
679
root  -49.1369 39.4866 -0.385445 26.2959 78.9104 29.8931
RightUpLeg  -18.6425 6.66491 -9.57702
RightLeg  61.3915 3.83368 7.11749
RightFoot  2.47687 -0.783228 6.58753
RightToes  -2.9104e-010 0 -3.6325e-017
Spine  9.77921 0.915562 -6.3849
Spine1  5.19506 0.333984 -2.55464
HEad  -27.8226 11.1053 -12.5636
LeftShoulder1  -0.457295 4.70766 -31.8477
LeftArm  -10.1383 29.9614 -35.5688
LeftForeArm  28.8967 -4.81522 -4.34288
LeftHand  -0.222238 9.55197 -4.56606
RightShoulder  -1.16827 -6.73937 29.5962
RightArm  4.6766 -2.44902 43.5265
RightForeArm  17.4459 48.2259 11.2709
RightHand  -0.371051 6.63379 -3.91437
LeftUpLeg  -3.51899 4.43393 -9.38994
LeftLeg  17.1964 10.4438 1.44593
LeftFoot  -10.9554 0.0464047 5.78425
LeftToes  -3.37426e-010 -1.91496e-010 5.23909e-011
